HIERARCHY
ROOT newVegas:Hips
{
	OFFSET 0.000000 96.479958 0.000000
	CHANNELS 6 Xposition Yposition Zposition Xrotation Yrotation Zrotation
	JOINT newVegas:Pelvis
	{
		OFFSET 0.000000 0.000000 0.000000
		CHANNELS 3 Xrotation Yrotation Zrotation
		JOINT newVegas:LeftUpLeg
		{
			OFFSET 18.735201 -5.666702 -4.541200
			CHANNELS 3 Xrotation Yrotation Zrotation
			JOINT newVegas:LeftLeg
			{
				OFFSET -0.021200 -31.938179 0.493100
				CHANNELS 3 Xrotation Yrotation Zrotation
				JOINT newVegas:LeftFoot
				{
					OFFSET 0.021200 -31.938179 -4.336299
					CHANNELS 3 Xrotation Yrotation Zrotation
					JOINT newVegas:LeftToeBase
					{
						OFFSET 0.943001 -26.722000 15.023500
						CHANNELS 3 Xrotation Yrotation Zrotation
						End Site
						{
							OFFSET 0.000000 30.670183 0.000000
						}
					}
				}
				JOINT newVegas:Left_PantLeg
				{
					OFFSET 0.663870 -9.044666 -1.108900
					CHANNELS 3 Xrotation Yrotation Zrotation
					End Site
					{
						OFFSET 1.415995 20.635357 0.000000
					}
				}
			}
		}
		JOINT newVegas:RightUpLeg
		{
			OFFSET -18.735201 -5.666702 -4.541200
			CHANNELS 3 Xrotation Yrotation Zrotation
			JOINT newVegas:RightLeg
			{
				OFFSET 0.018946 -31.938133 0.493100
				CHANNELS 3 Xrotation Yrotation Zrotation
				JOINT newVegas:RightFoot
				{
					OFFSET -0.018946 -31.938126 -4.336299
					CHANNELS 3 Xrotation Yrotation Zrotation
					JOINT newVegas:RightToeBase
					{
						OFFSET -0.943001 -26.722004 15.023500
						CHANNELS 3 Xrotation Yrotation Zrotation
						End Site
						{
							OFFSET 0.000000 30.670187 0.000000
						}
					}
				}
				JOINT newVegas:Right_PantLeg
				{
					OFFSET -0.661674 -9.044716 -1.108900
					CHANNELS 3 Xrotation Yrotation Zrotation
					End Site
					{
						OFFSET -1.415958 20.635269 0.000000
					}
				}
			}
		}
	}
	JOINT newVegas:Spine
	{
		OFFSET 0.000000 10.199997 -0.299500
		CHANNELS 3 Xrotation Yrotation Zrotation
		JOINT newVegas:Spine1
		{
			OFFSET 0.000000 11.900002 -1.516600
			CHANNELS 3 Xrotation Yrotation Zrotation
			JOINT newVegas:Spine2
			{
				OFFSET 0.000000 13.600006 -2.842500
				CHANNELS 3 Xrotation Yrotation Zrotation
				JOINT newVegas:Neck
				{
					OFFSET 0.000000 9.624100 -2.890100
					CHANNELS 3 Xrotation Yrotation Zrotation
					JOINT newVegas:Head
					{
						OFFSET 0.000000 14.068802 -1.351900
						CHANNELS 3 Xrotation Yrotation Zrotation
						JOINT newVegas:Hair_Back
						{
							OFFSET 0.000000 3.231903 -17.524799
							CHANNELS 3 Xrotation Yrotation Zrotation
							End Site
							{
								OFFSET 0.000000 19.849884 0.000000
							}
						}
						JOINT newVegas:Hair_Front
						{
							OFFSET 0.000000 31.260406 4.573800
							CHANNELS 3 Xrotation Yrotation Zrotation
							JOINT newVegas:Hair_Front1
							{
								OFFSET 0.000000 2.284103 11.993300
								CHANNELS 3 Xrotation Yrotation Zrotation
								JOINT newVegas:Hair_Front2
								{
									OFFSET 0.000000 2.284103 11.993300
									CHANNELS 3 Xrotation Yrotation Zrotation
									End Site
									{
										OFFSET 0.000000 12.208862 0.000000
									}
								}
							}
						}
						JOINT newVegas:Jowel
						{
							OFFSET 0.000000 -7.458206 6.864100
							CHANNELS 3 Xrotation Yrotation Zrotation
							End Site
							{
								OFFSET 0.000000 19.849884 0.000000
							}
						}
					}
				}
				JOINT newVegas:LeftShoulder
				{
					OFFSET 15.263000 10.923401 -0.547700
					CHANNELS 3 Xrotation Yrotation Zrotation
					JOINT newVegas:LeftArm
					{
						OFFSET 25.438599 -2.830597 -13.032500
						CHANNELS 3 Xrotation Yrotation Zrotation
						JOINT newVegas:LeftForeArm
						{
							OFFSET 29.960503 0.000000 0.000000
							CHANNELS 3 Xrotation Yrotation Zrotation
							JOINT newVegas:LeftHand
							{
								OFFSET 27.849251 0.000000 0.000000
								CHANNELS 3 Xrotation Yrotation Zrotation
								JOINT newVegas:LeftHandThumb1
								{
									OFFSET 4.487587 -3.305161 6.305391
									CHANNELS 3 Xrotation Yrotation Zrotation
									JOINT newVegas:LeftHandThumb2
									{
										OFFSET 5.480453 -3.164139 3.164143
										CHANNELS 3 Xrotation Yrotation Zrotation
										JOINT newVegas:LeftHandThumb3
										{
											OFFSET 5.159721 -2.978973 2.978967
											CHANNELS 3 Xrotation Yrotation Zrotation
											End Site
											{
												OFFSET 2.494507 5.926697 1.738678
											}
										}
									}
								}
								JOINT newVegas:LeftHandIndex1
								{
									OFFSET 18.578728 -0.527832 5.208049
									CHANNELS 3 Xrotation Yrotation Zrotation
									JOINT newVegas:LeftHandIndex2
									{
										OFFSET 3.192009 0.000000 0.000000
										CHANNELS 3 Xrotation Yrotation Zrotation
										JOINT newVegas:LeftHandIndex3
										{
											OFFSET 3.835129 0.000000 0.000000
											CHANNELS 3 Xrotation Yrotation Zrotation
											End Site
											{
												OFFSET -0.034599 3.816971 0.371180
											}
										}
									}
								}
								JOINT newVegas:LeftHandMiddle1
								{
									OFFSET 18.476105 0.000000 0.000000
									CHANNELS 3 Xrotation Yrotation Zrotation
									JOINT newVegas:LeftHandMiddle2
									{
										OFFSET 3.324875 0.000000 0.000000
										CHANNELS 3 Xrotation Yrotation Zrotation
										JOINT newVegas:LeftHandMiddle3
										{
											OFFSET 4.596550 0.000000 0.000000
											CHANNELS 3 Xrotation Yrotation Zrotation
											End Site
											{
												OFFSET 0.057701 4.578827 0.399218
											}
										}
									}
								}
								JOINT newVegas:LeftHandRing1
								{
									OFFSET 17.732719 0.121887 -4.201567
									CHANNELS 3 Xrotation Yrotation Zrotation
									JOINT newVegas:LeftHandRing2
									{
										OFFSET 2.733170 0.000000 0.000000
										CHANNELS 3 Xrotation Yrotation Zrotation
										JOINT newVegas:LeftHandRing3
										{
											OFFSET 3.178268 0.000000 0.000000
											CHANNELS 3 Xrotation Yrotation Zrotation
											End Site
											{
												OFFSET 0.119102 3.170624 0.185394
											}
										}
									}
								}
								JOINT newVegas:LeftHandPinky1
								{
									OFFSET 15.989624 -0.606689 -7.535461
									CHANNELS 3 Xrotation Yrotation Zrotation
									JOINT newVegas:LeftHandPinky2
									{
										OFFSET 2.538986 0.000000 0.000000
										CHANNELS 3 Xrotation Yrotation Zrotation
										JOINT newVegas:LeftHandPinky3
										{
											OFFSET 2.593102 0.000000 0.000000
											CHANNELS 3 Xrotation Yrotation Zrotation
											End Site
											{
												OFFSET -0.150902 2.584198 0.152708
											}
										}
									}
								}
							}
							JOINT newVegas:Left_Sleeve
							{
								OFFSET 0.267448 -0.649796 0.577675
								CHANNELS 3 Xrotation Yrotation Zrotation
								End Site
								{
									OFFSET 0.000000 15.991241 0.000000
								}
							}
							JOINT newVegas:Left_CapeC
							{
								OFFSET 15.715958 -8.608795 -6.935905
								CHANNELS 3 Xrotation Yrotation Zrotation
								JOINT newVegas:Left_CapeC1
								{
									OFFSET 0.000000 -8.688499 0.000000
									CHANNELS 3 Xrotation Yrotation Zrotation
									End Site
									{
										OFFSET 0.000000 8.688499 0.000000
									}
								}
							}
						}
						JOINT newVegas:Left_CapeB
						{
							OFFSET 26.118385 -8.608795 -7.079235
							CHANNELS 3 Xrotation Yrotation Zrotation
							JOINT newVegas:Left_CapeB1
							{
								OFFSET 0.000000 -8.688499 0.000000
								CHANNELS 3 Xrotation Yrotation Zrotation
								End Site
								{
									OFFSET 0.000000 8.688499 0.000000
								}
							}
						}
						JOINT newVegas:Left_CapeA
						{
							OFFSET 5.115639 -8.608795 -10.395809
							CHANNELS 3 Xrotation Yrotation Zrotation
							JOINT newVegas:Left_CapeA1
							{
								OFFSET 0.000000 -8.688499 0.000000
								CHANNELS 3 Xrotation Yrotation Zrotation
								End Site
								{
									OFFSET 0.000000 8.688499 0.000000
								}
							}
						}
					}
				}
				JOINT newVegas:RightShoulder
				{
					OFFSET -15.263000 10.923401 -0.547700
					CHANNELS 3 Xrotation Yrotation Zrotation
					JOINT newVegas:RightArm
					{
						OFFSET -25.438599 -2.830597 -13.032500
						CHANNELS 3 Xrotation Yrotation Zrotation
						JOINT newVegas:RightForeArm
						{
							OFFSET -29.960503 0.000000 0.000000
							CHANNELS 3 Xrotation Yrotation Zrotation
							JOINT newVegas:RightHand
							{
								OFFSET -27.849251 0.000000 0.000000
								CHANNELS 3 Xrotation Yrotation Zrotation
								JOINT newVegas:RightHandThumb1
								{
									OFFSET -4.487587 -3.305161 6.305391
									CHANNELS 3 Xrotation Yrotation Zrotation
									JOINT newVegas:RightHandThumb2
									{
										OFFSET -5.480453 -3.164139 3.164143
										CHANNELS 3 Xrotation Yrotation Zrotation
										JOINT newVegas:RightHandThumb3
										{
											OFFSET -5.159721 -2.978973 2.978967
											CHANNELS 3 Xrotation Yrotation Zrotation
											End Site
											{
												OFFSET -2.494507 5.926697 1.738678
											}
										}
									}
								}
								JOINT newVegas:RightHandIndex1
								{
									OFFSET -18.578728 -0.527832 5.208049
									CHANNELS 3 Xrotation Yrotation Zrotation
									JOINT newVegas:RightHandIndex2
									{
										OFFSET -3.192009 0.000000 0.000000
										CHANNELS 3 Xrotation Yrotation Zrotation
										JOINT newVegas:RightHandIndex3
										{
											OFFSET -3.835129 0.000000 0.000000
											CHANNELS 3 Xrotation Yrotation Zrotation
											End Site
											{
												OFFSET 0.034599 3.816971 0.371180
											}
										}
									}
								}
								JOINT newVegas:RightHandMiddle1
								{
									OFFSET -18.476105 0.000000 0.000000
									CHANNELS 3 Xrotation Yrotation Zrotation
									JOINT newVegas:RightHandMiddle2
									{
										OFFSET -3.324875 0.000000 0.000000
										CHANNELS 3 Xrotation Yrotation Zrotation
										JOINT newVegas:RightHandMiddle3
										{
											OFFSET -4.596550 0.000000 0.000000
											CHANNELS 3 Xrotation Yrotation Zrotation
											End Site
											{
												OFFSET -0.057701 4.578827 0.399218
											}
										}
									}
								}
								JOINT newVegas:RightHandRing1
								{
									OFFSET -17.732719 0.121887 -4.201567
									CHANNELS 3 Xrotation Yrotation Zrotation
									JOINT newVegas:RightHandRing2
									{
										OFFSET -2.733170 0.000000 0.000000
										CHANNELS 3 Xrotation Yrotation Zrotation
										JOINT newVegas:RightHandRing3
										{
											OFFSET -3.178268 0.000000 0.000000
											CHANNELS 3 Xrotation Yrotation Zrotation
											End Site
											{
												OFFSET -0.119102 3.170624 0.185394
											}
										}
									}
								}
								JOINT newVegas:RightHandPinky1
								{
									OFFSET -15.989624 -0.606689 -7.535461
									CHANNELS 3 Xrotation Yrotation Zrotation
									JOINT newVegas:RightHandPinky2
									{
										OFFSET -2.538986 0.000000 0.000000
										CHANNELS 3 Xrotation Yrotation Zrotation
										JOINT newVegas:RightHandPinky3
										{
											OFFSET -2.593102 0.000000 0.000000
											CHANNELS 3 Xrotation Yrotation Zrotation
											End Site
											{
												OFFSET 0.150902 2.584198 0.152708
											}
										}
									}
								}
							}
							JOINT newVegas:Right_CapeC
							{
								OFFSET -15.715958 -8.608795 -6.935905
								CHANNELS 3 Xrotation Yrotation Zrotation
								JOINT newVegas:Right_CapeC1
								{
									OFFSET 0.000000 -8.688499 0.000000
									CHANNELS 3 Xrotation Yrotation Zrotation
									End Site
									{
										OFFSET 0.000000 8.688499 0.000000
									}
								}
							}
							JOINT newVegas:Right_Sleeve
							{
								OFFSET -0.267448 -0.649994 0.577675
								CHANNELS 3 Xrotation Yrotation Zrotation
								End Site
								{
									OFFSET 0.000000 15.991302 0.000000
								}
							}
						}
						JOINT newVegas:Right_CapeA
						{
							OFFSET -5.115540 -8.608795 -10.395824
							CHANNELS 3 Xrotation Yrotation Zrotation
							JOINT newVegas:Right_CapeA1
							{
								OFFSET 0.000000 -8.688499 0.000000
								CHANNELS 3 Xrotation Yrotation Zrotation
								End Site
								{
									OFFSET 0.000000 8.688499 0.000000
								}
							}
						}
						JOINT newVegas:Right_CapeB
						{
							OFFSET -26.118187 -8.608795 -7.079266
							CHANNELS 3 Xrotation Yrotation Zrotation
							JOINT newVegas:Right_CapeB1
							{
								OFFSET 0.000000 -8.688499 0.000000
								CHANNELS 3 Xrotation Yrotation Zrotation
								End Site
								{
									OFFSET 0.000000 8.688499 0.000000
								}
							}
						}
					}
				}
				JOINT newVegas:Left_Collar
				{
					OFFSET 18.625099 8.655502 8.828100
					CHANNELS 3 Xrotation Yrotation Zrotation
					JOINT newVegas:Left_Collar1
					{
						OFFSET 14.783401 10.540405 -1.259500
						CHANNELS 3 Xrotation Yrotation Zrotation
						End Site
						{
							OFFSET 0.000000 18.199875 0.000000
						}
					}
				}
				JOINT newVegas:Collar_Back
				{
					OFFSET 0.000000 15.630707 -20.132601
					CHANNELS 3 Xrotation Yrotation Zrotation
					End Site
					{
						OFFSET 0.000000 22.523010 0.000000
					}
				}
				JOINT newVegas:Left_Peck
				{
					OFFSET 17.239599 -5.132599 25.482599
					CHANNELS 3 Xrotation Yrotation Zrotation
					End Site
					{
						OFFSET 0.000000 22.523010 0.000000
					}
				}
				JOINT newVegas:Right_Peck
				{
					OFFSET -17.239599 -5.132202 25.482599
					CHANNELS 3 Xrotation Yrotation Zrotation
					End Site
					{
						OFFSET 0.000000 22.523010 0.000000
					}
				}
				JOINT newVegas:Right_Collar
				{
					OFFSET -18.625099 8.655792 8.828100
					CHANNELS 3 Xrotation Yrotation Zrotation
					JOINT newVegas:Right_Collar1
					{
						OFFSET -14.783401 10.539993 -1.259500
						CHANNELS 3 Xrotation Yrotation Zrotation
						End Site
						{
							OFFSET 0.000000 18.199631 0.000000
						}
					}
				}
			}
		}
		JOINT newVegas:Belly
		{
			OFFSET 0.000000 -6.540398 9.014299
			CHANNELS 3 Xrotation Yrotation Zrotation
			End Site
			{
				OFFSET 0.000000 11.566666 0.000000
			}
		}
	}
	JOINT newVegas:ElvisFacialAnim_Joint
	{
		OFFSET 1.000000 -95.330101 -8.825800
		CHANNELS 3 Xrotation Yrotation Zrotation
		End Site
		{
			OFFSET 0.000000 35.315800 0.000000
		}
	}
}
MOTION
Frames: 4
Frame Time: 0.016667
-0.017622 87.444176 4.642540 22.697019 0.067172 -6.345463 -0.000001 0.000000 -0.000000 -66.720081 2.163027 -4.229414 72.648501 -2.340054 3.388646 14.729281 2.329873 6.579301 -0.000001 0.000000 -0.000000 0.000001 0.000000 0.000000 -31.958998 -11.564126 -0.180916 34.192521 -3.515245 2.562842 -23.823377 -1.710170 4.871233 0.000000 -0.000001 -0.000000 0.000004 0.000000 -0.000000 8.976102 2.773651 -0.064053 -0.486220 1.376180 -0.738724 -0.484352 1.393122 -0.752145 -4.866359 0.370725 0.352193 -4.866386 0.370726 0.352192 0.000002 0.000000 -0.000000 -4.866368 0.370728 0.352195 -4.866289 0.370726 0.352191 -0.000001 0.000001 0.000000 0.000002 0.000000 -0.000000 0.800075 -1.053362 -19.763349 13.552898 -1.213089 -48.473026 -0.000000 -65.396841 -0.000005 -23.458457 12.668250 -19.629233 74.823971 -40.508097 61.030274 25.114382 4.278463 -82.291813 -0.000001 -0.000005 -0.000005 5.834363 7.878509 -78.812897 5.407304 5.834269 -85.642854 -0.000000 0.000004 0.000000 4.932083 8.202250 -90.163367 4.700889 5.737271 -78.644116 0.000000 0.000001 -0.000001 4.402384 8.246151 -91.663174 5.862438 5.851035 -90.111546 -0.000000 -0.000001 0.000001 5.304521 8.410036 -100.449243 2.535402 4.823600 -55.434645 -0.000000 -0.000002 -0.000000 0.000000 0.000000 0.000000 0.000000 0.000000 0.000000 0.000000 0.000001 0.000000 0.000000 -0.000003 0.000001 0.000000 -0.000003 0.000000 0.000000 -0.000003 0.000001 -0.000000 -0.000003 0.000001 0.203553 7.873810 19.585053 11.893546 -9.449217 48.231627 -0.000001 63.147004 0.000019 -2.319523 -16.349538 7.973143 47.809709 35.835407 -5.333795 34.631316 -33.014512 35.094605 0.000001 -0.000002 -0.000001 5.182518 -7.113274 78.876268 4.422142 -4.651261 87.104057 0.000000 0.000001 -0.000003 7.506132 -6.722294 94.665056 4.366833 -4.648111 86.421940 -0.000003 0.000000 -0.000001 5.682778 -6.829403 102.073885 3.638052 -4.544521 77.346223 0.000002 0.000001 -0.000001 5.373770 -6.885383 99.411778 1.706926 -3.605090 50.661320 -0.000000 0.000001 0.000001 0.000001 0.000000 0.000001 0.000001 -0.000000 -0.000001 0.000001 -0.000000 -0.000001 0.000002 0.000001 0.000002 0.000001 0.000002 0.000003 0.000002 0.000001 0.000002 0.000001 0.000002 0.000003 0.000004 0.000000 0.000000 0.000004 0.000000 0.000000 0.000004 0.000000 0.000000 0.000004 0.000000 0.000000 0.000004 0.000000 0.000000 0.000004 0.000000 0.000000 0.000004 0.000000 0.000000 0.000000 0.000000 -0.000000 -0.000001 0.000000 -0.000000 
-0.592016 87.200966 6.752487 23.011517 0.125011 -6.066567 -0.000002 0.000000 0.000000 -70.242034 3.114565 -4.602864 73.252078 -3.286828 3.415150 12.009350 3.008365 6.020154 -0.000004 0.000000 0.000000 -0.000000 0.000000 -0.000000 -29.888225 -11.588033 0.290408 33.605596 -3.471674 2.420314 -25.707743 -1.766771 4.776551 0.000000 -0.000000 0.000000 0.000002 -0.000000 -0.000000 8.756982 2.917221 -0.495029 -0.496564 1.450543 -0.731987 -0.477003 1.478104 -0.752148 -4.887624 0.324919 0.370692 -4.887620 0.324919 0.370691 -0.000001 0.000001 -0.000000 -4.887631 0.324917 0.370690 -4.887557 0.324916 0.370690 0.000000 0.000000 -0.000000 -0.000001 0.000001 -0.000000 0.809865 -1.055533 -19.698330 13.400045 -1.470152 -48.429368 -0.000004 -65.609281 -0.000013 -23.708580 13.002232 -19.426748 74.823971 -40.508107 61.030267 25.166971 4.373157 -82.354405 0.000003 0.000000 -0.000003 5.840192 7.879093 -78.844979 5.407308 5.834272 -85.642840 0.000000 0.000001 -0.000000 4.933133 8.202424 -90.173694 4.700461 5.737189 -78.639820 0.000001 0.000000 0.000000 4.398814 8.245235 -91.628456 5.862142 5.851035 -90.108637 -0.000000 -0.000001 0.000003 5.300744 8.409653 -100.413459 2.530728 4.820390 -55.379017 0.000000 -0.000005 -0.000000 0.000000 -0.000001 0.000000 0.000000 -0.000001 0.000000 0.000000 -0.000001 0.000000 0.000000 -0.000001 0.000000 0.000000 -0.000002 0.000000 0.000000 -0.000001 0.000000 -0.000000 -0.000002 0.000001 0.179715 8.056689 19.469471 11.883971 -9.750500 48.141024 0.000000 64.191457 0.000022 -2.283718 -16.744893 8.133043 47.809712 35.835407 -5.333798 34.631316 -33.014518 35.094601 0.000001 -0.000001 0.000001 5.188558 -7.114455 78.876514 4.422141 -4.651247 87.104077 -0.000001 -0.000001 0.000002 7.510144 -6.722901 94.643186 4.366586 -4.648090 86.418818 -0.000002 -0.000001 0.000001 5.680123 -6.829965 102.040349 3.638060 -4.544517 77.346251 0.000001 0.000001 0.000001 5.371729 -6.885677 99.386410 1.706647 -3.604865 50.656965 0.000003 0.000003 0.000002 0.000000 -0.000001 0.000002 0.000001 -0.000001 0.000000 0.000000 -0.000001 0.000001 -0.000000 0.000002 -0.000000 -0.000000 0.000002 -0.000000 -0.000000 0.000002 -0.000000 0.000000 0.000002 -0.000000 0.000003 -0.000000 -0.000000 0.000003 -0.000000 -0.000000 0.000003 -0.000000 -0.000000 0.000003 -0.000000 -0.000000 0.000003 -0.000000 -0.000000 0.000003 -0.000000 -0.000000 0.000003 -0.000000 -0.000000 -0.000000 0.000000 -0.000000 -0.000002 0.000000 0.000000 
-1.162322 86.927330 8.828232 23.327995 0.178358 -5.797381 0.000000 0.000000 0.000000 -73.432839 4.063700 -4.922327 73.305415 -4.305057 3.439533 9.490498 3.785126 5.507404 0.000003 -0.000000 0.000000 0.000002 -0.000000 0.000000 -27.709219 -11.758304 0.815661 32.758926 -3.347248 2.156448 -27.472578 -1.801383 4.670236 0.000000 -0.000000 -0.000000 0.000001 -0.000000 -0.000000 8.539456 3.066756 -0.916793 -0.507233 1.525119 -0.724556 -0.469548 1.563696 -0.748853 -4.908797 0.278932 0.389231 -4.908784 0.278931 0.389228 0.000000 -0.000000 0.000000 -4.908718 0.278938 0.389230 -4.908869 0.278919 0.389232 -0.000000 -0.000000 -0.000000 0.000000 -0.000000 0.000000 0.829645 -1.055380 -19.576804 13.303897 -1.693181 -48.524331 -0.000009 -65.794311 -0.000027 -24.000863 13.236741 -19.197118 74.823978 -40.508103 61.030267 25.309105 4.629911 -82.525617 0.000000 -0.000002 -0.000005 5.855885 7.880583 -78.934406 5.407304 5.834269 -85.642875 0.000000 0.000001 -0.000000 4.936094 8.202922 -90.202654 4.699355 5.736967 -78.628755 0.000001 0.000000 -0.000001 4.389602 8.242871 -91.538844 5.861339 5.851039 -90.100720 -0.000001 -0.000001 0.000002 5.290390 8.408599 -100.315514 2.518098 4.811688 -55.228739 0.000000 0.000000 -0.000001 0.000001 0.000001 -0.000001 0.000001 0.000001 -0.000001 0.000001 0.000001 -0.000001 0.000000 0.000004 0.000001 0.000000 0.000003 0.000001 0.000000 0.000004 0.000001 -0.000000 0.000003 0.000001 0.162750 8.201806 19.240262 12.013094 -10.084080 48.107433 -0.000010 65.513235 0.000002 -2.194439 -17.182502 8.317063 47.809709 35.835411 -5.333799 34.631313 -33.014508 35.094605 0.000002 -0.000000 -0.000001 5.206644 -7.117993 78.877272 4.422150 -4.651243 87.104064 -0.000005 0.000001 0.000000 7.521362 -6.724517 94.584542 4.365923 -4.648062 86.410670 0.000001 0.000001 0.000000 5.673242 -6.831423 101.953844 3.638490 -4.544619 77.351797 -0.000001 -0.000003 0.000001 5.371545 -6.885601 99.321121 1.705943 -3.604291 50.645778 0.000002 0.000005 -0.000001 -0.000002 0.000001 0.000002 -0.000002 0.000001 0.000001 -0.000002 0.000001 0.000002 -0.000003 -0.000003 0.000003 -0.000004 -0.000003 0.000003 -0.000003 -0.000003 0.000003 -0.000004 -0.000003 0.000004 -0.000001 0.000000 -0.000001 -0.000001 0.000000 -0.000001 -0.000001 0.000000 -0.000001 -0.000001 0.000000 -0.000001 -0.000001 0.000000 -0.000001 -0.000001 0.000000 -0.000001 -0.000001 0.000000 -0.000001 0.000000 0.000000 -0.000000 0.000000 0.000000 0.000000 
-1.733138 86.567879 10.889135 23.670082 0.206868 -5.531980 0.000002 0.000000 -0.000000 -76.398521 4.916884 -5.188037 72.854042 -5.352251 3.423995 7.118522 4.719824 4.983154 0.000000 -0.000001 0.000000 -0.000003 -0.000000 0.000000 -25.553425 -12.032899 1.349251 31.900539 -3.117719 1.823457 -29.232308 -1.825384 4.568912 -0.000000 -0.000003 -0.000000 0.000001 -0.000000 0.000000 8.315745 3.226524 -1.328042 -0.520800 1.601805 -0.710189 -0.460740 1.655480 -0.739870 -4.930132 0.231077 0.407897 -4.930139 0.231073 0.407894 0.000001 0.000001 -0.000000 -4.930127 0.231074 0.407898 -4.930129 0.231068 0.407899 0.000001 0.000000 -0.000000 0.000001 0.000001 -0.000000 0.857946 -1.055084 -19.402790 13.266432 -1.833224 -48.691633 0.000017 -65.913839 0.000028 -24.290244 13.359654 -18.989958 74.823971 -40.508110 61.030267 25.517163 5.007343 -82.781674 -0.000000 -0.000002 -0.000003 5.878719 7.882574 -79.070914 5.407305 5.834271 -85.642834 0.000000 -0.000000 0.000000 4.940643 8.203676 -90.247255 4.697842 5.736663 -78.613613 -0.000000 0.000000 0.000002 4.377015 8.239619 -91.416352 5.860120 5.851039 -90.088774 -0.000000 -0.000001 0.000001 5.275012 8.406990 -100.169847 2.499670 4.798878 -55.008636 0.000000 -0.000002 -0.000001 0.000001 0.000000 0.000000 0.000001 0.000000 0.000000 0.000001 0.000000 0.000000 -0.000000 -0.000003 -0.000001 -0.000000 -0.000003 -0.000001 -0.000000 -0.000003 -0.000001 -0.000000 -0.000003 0.000000 0.154750 8.315186 18.934695 12.291673 -10.409284 48.204374 0.000032 66.924468 -0.000026 -2.085132 -17.592967 8.432655 47.809712 35.835407 -5.333795 34.631313 -33.014512 35.094605 0.000000 -0.000000 -0.000000 5.237266 -7.123813 78.883972 4.422139 -4.651244 87.104050 -0.000002 0.000001 -0.000004 7.538611 -6.726828 94.499636 4.365027 -4.648013 86.399605 0.000001 -0.000000 0.000001 5.663840 -6.833385 101.835600 3.639155 -4.544762 77.360198 0.000002 -0.000001 0.000002 5.371765 -6.885423 99.231877 1.704978 -3.603504 50.630444 -0.000002 0.000002 -0.000002 -0.000000 0.000001 -0.000000 -0.000000 -0.000001 0.000001 -0.000000 0.000001 -0.000000 0.000000 0.000000 0.000003 -0.000001 0.000000 0.000003 0.000000 0.000000 0.000003 -0.000000 0.000000 0.000004 -0.000001 0.000000 -0.000000 -0.000001 0.000000 -0.000000 -0.000001 0.000000 -0.000000 -0.000001 0.000000 -0.000000 -0.000001 0.000000 -0.000000 -0.000001 0.000000 -0.000000 -0.000001 0.000000 -0.000000 -0.000002 0.000000 -0.000000 0.000002 0.000000 -0.000000 
